<?xml version="1.0" encoding="UTF-8"?>
<!DOCTYPE svg PUBLIC "-//W3C//DTD SVG 1.1//EN" "http://www.w3.org/Graphics/SVG/1.1/DTD/svg11.dtd">
<!-- Creator: CorelDRAW -->
<svg xmlns="http://www.w3.org/2000/svg" xml:space="preserve" width="6.82666in" height="6.82666in" style="shape-rendering:geometricPrecision; text-rendering:geometricPrecision; image-rendering:optimizeQuality; fill-rule:evenodd; clip-rule:evenodd"
viewBox="0 0 6.82666 6.82666"
 xmlns:xlink="http://www.w3.org/1999/xlink">
 <defs>
  <style type="text/css">
   <![CDATA[
    .fil34 {fill:#544A59}
    .fil30 {fill:#A37BB8}
    .fil1 {fill:#A882BD}
    .fil7 {fill:#AB86BE}
    .fil16 {fill:#AE8CC1}
    .fil0 {fill:#B392C5}
    .fil8 {fill:#B494C5}
    .fil17 {fill:#B799C8}
    .fil15 {fill:#B99BCA}
    .fil9 {fill:#BA9CCA}
    .fil3 {fill:#BEA3CD}
    .fil13 {fill:#C1A6CF}
    .fil31 {fill:#C2A8D0}
    .fil6 {fill:#C4A9D1}
    .fil2 {fill:#C4ABD2}
    .fil32 {fill:#C6ADD4}
    .fil21 {fill:#C6AED4}
    .fil14 {fill:#C9B3D6}
    .fil11 {fill:#CBB4D7}
    .fil10 {fill:#CEBADA}
    .fil19 {fill:#D0BCDB}
    .fil12 {fill:#D1BDDC}
    .fil5 {fill:#D2BEDC}
    .fil18 {fill:#D4C1DD}
    .fil28 {fill:#D5C4DF}
    .fil4 {fill:#D6C5DF}
    .fil20 {fill:#D8C7E1}
    .fil22 {fill:#D9C9E2}
    .fil27 {fill:#DACAE3}
    .fil23 {fill:#DBCBE4}
    .fil25 {fill:#DCCDE4}
    .fil24 {fill:#E0D3E7}
    .fil26 {fill:#E2D5E9}
    .fil29 {fill:#E5DBEC}
    .fil33 {fill:#544A59;fill-rule:nonzero}
   ]]>
  </style>
 </defs>
 <g id="Layer_x0020_1">
  <metadata id="CorelCorpID_0Corel-Layer"/>
  <g id="_467815448">
   <path id="_467819960" class="fil0" d="M3.41333 0.103323c1.82806,0 3.31001,1.48194 3.31001,3.31001 0,1.82806 -1.48195,3.31001 -3.31001,3.31001 -1.82806,0 -3.31001,-1.48195 -3.31001,-3.31001 0,-1.82806 1.48194,-3.31001 3.31001,-3.31001z"/>
   <g>
    <path id="_467819912" class="fil1" d="M0.848209 1.34939l-0.00888189 -0.0168976c0.0075748,-0.00935827 0.0150591,-0.0187835 0.0227323,-0.0280551l-0.0138504 0.0449528z"/>
    <path id="_467820176" class="fil2" d="M0.103453 3.42352l0.0735669 0.129205 -0.0561969 0.202602c-0.0111969,-0.109118 -0.0170315,-0.219815 -0.0173701,-0.331807z"/>
    <path id="_467819840" class="fil3" d="M0.17702 3.55273l-0.0735669 -0.129205c-1.1811e-005,-0.00340551 -0.000129921,-0.00678346 -0.000129921,-0.0101929 0,-0.0521693 0.0013622,-0.10402 0.00374803,-0.155598l0.0699488 0.294996z"/>
    <path id="_467819816" class="fil4" d="M1.18754 5.86326l0.776205 -0.144028 -0.0895472 0.624984c-0.249323,-0.131201 -0.479984,-0.293083 -0.686657,-0.480957z"/>
    <path id="_467820104" class="fil5" d="M0.877756 5.54078l0.569512 -2.23293 0.51648 2.41138 -0.776205 0.144028c-0.110374,-0.10035 -0.213795,-0.208189 -0.309787,-0.322472z"/>
    <path id="_467819000" class="fil6" d="M1.44727 3.30785l-1.24765 -0.689331c0.0193661,-0.0785591 0.0415315,-0.156004 0.0663937,-0.232244l1.25359 -0.278039 -0.0723386 1.19961z"/>
    <path id="_467818880" class="fil7" d="M0.839327 1.3325l0.00888189 0.0168976 -0.0255039 0.00374016c0.00550394,-0.00690945 0.0110669,-0.0137717 0.016622,-0.0206378z"/>
    <path id="_467819432" class="fil8" d="M0.822705 1.35313l0.0255039 -0.00374016 -0.185602 0.222425c0.0504134,-0.0751457 0.103866,-0.148067 0.160098,-0.218685z"/>
    <path id="_467819360" class="fil9" d="M0.662606 1.57182l0.185602 -0.222425 0.671398 0.758843 -1.25359 0.278039c0.0950315,-0.291311 0.229209,-0.564929 0.396591,-0.814457z"/>
    <path id="_467819240" class="fil2" d="M0.17702 3.55273l0 0 -0.0699488 -0.294996c0.0101535,-0.219339 0.0417362,-0.433051 0.0925512,-0.639213l1.24765 0.689331 -1.27025 0.244878z"/>
    <path id="_467819456" class="fil10" d="M0.206906 4.23799l1.24036 -0.930138 -0.569512 2.23293c-0.313394,-0.37313 -0.546094,-0.816291 -0.67085,-1.3028z"/>
    <path id="_467818952" class="fil11" d="M0.120823 3.75533l0.0561969 -0.202602 1.27025 -0.244878 -1.24036 0.930138c-0.0401811,-0.156705 -0.0691693,-0.31789 -0.0860827,-0.482657z"/>
    <polygon id="_467818496" class="fil12" points="2.78989,4.64199 1.44727,3.30785 2.33539,3.05079 "/>
    <polygon id="_467818088" class="fil13" points="2.33539,3.05079 1.51961,2.10824 2.08771,1.12905 "/>
    <polygon id="_467818064" class="fil14" points="1.44727,3.30785 1.51961,2.10824 2.33539,3.05079 "/>
    <path id="_467818424" class="fil15" d="M4.66968 2.62236l-0.660996 -1.18727 1.14087 -0.840169c0.0476378,0.0294094 0.0944528,0.0600157 0.140449,0.0917323l-0.620323 1.9357z"/>
    <path id="_467818256" class="fil16" d="M0.848209 1.34939l0.0138504 -0.0449528c0.166303,-0.200961 0.355913,-0.381909 0.56465,-0.538787l0.661004 0.363394 -1.2395 0.220346z"/>
    <polygon id="_467818184" class="fil17" points="1.51961,2.10824 1.51961,2.10824 0.848209,1.34939 2.08771,1.12905 "/>
    <path id="_467818520" class="fil7" d="M2.08771 1.12905l-0.661004 -0.363394c0.201051,-0.151094 0.419937,-0.279669 0.652819,-0.38235l0.00818504 0.745744z"/>
    <polygon id="_467818568" class="fil18" points="1.96375,5.71923 1.96375,5.71923 1.44727,3.30785 2.78989,4.64199 "/>
    <polygon id="_467818208" class="fil19" points="4.34954,4.32376 3.48196,3.73628 4.66968,2.62236 "/>
    <path id="_467817992" class="fil20" d="M1.8742 6.34421l0.0895472 -0.624984 0.60222 0.894453c-0.242614,-0.064126 -0.474323,-0.155039 -0.691768,-0.269469z"/>
    <polygon id="_467817944" class="fil21" points="3.48196,3.73628 4.00868,1.43509 4.66968,2.62236 "/>
    <path id="_467817632" class="fil7" d="M2.08771 1.12905l0 0 -0.00818504 -0.745744c0.115445,-0.0508937 0.23428,-0.0954921 0.356181,-0.133154l1.08752 0.230087 -1.43552 0.648811z"/>
    <polygon id="_467817488" class="fil5" points="2.78989,4.64199 2.78989,4.64199 2.33539,3.05079 3.48196,3.73628 "/>
    <polygon id="_467817224" class="fil22" points="3.62652,6.66162 1.96375,5.71923 2.78989,4.64199 "/>
    <path id="_467817896" class="fil23" d="M2.56597 6.61368l-0.60222 -0.894453 1.66277 0.94239 -0.117512 0.060248c-0.0317913,0.000905512 -0.0636693,0.00147244 -0.0956772,0.00147244 -0.292925,0 -0.576886,-0.0382283 -0.847362,-0.109657z"/>
    <polygon id="_467817848" class="fil14" points="3.48196,3.73628 3.48196,3.73628 2.33539,3.05079 4.00868,1.43509 "/>
    <polygon id="_467817200" class="fil3" points="2.33539,3.05079 2.33539,3.05079 2.08771,1.12905 4.00868,1.43509 "/>
    <polygon id="_467817920" class="fil0" points="4.00868,1.43509 2.08771,1.12905 3.52323,0.480236 "/>
    <path id="_467817872" class="fil24" d="M3.50901 6.72187l0.117512 -0.060248 0.0260551 0.0530433c-0.0475906,0.00339764 -0.0954409,0.00583858 -0.143567,0.00720472z"/>
    <polygon id="_467817320" class="fil25" points="3.62652,6.66162 3.62652,6.66162 2.78989,4.64199 4.25661,6.29452 "/>
    <polygon id="_467817680" class="fil22" points="4.25661,6.29452 4.25661,6.29452 2.78989,4.64199 4.34954,4.32376 "/>
    <path id="_467816960" class="fil26" d="M3.65257 6.71466l-0.0260551 -0.0530433 0.630087 -0.367094 -0.0383504 0.330047c-0.183016,0.0457244 -0.372024,0.0762559 -0.565681,0.0900906z"/>
    <polygon id="_467817104" class="fil18" points="2.78989,4.64199 3.48196,3.73628 4.34954,4.32376 "/>
    <path id="_467816552" class="fil16" d="M4.00868 1.43509l0 0 -0.485449 -0.954858 1.35448 -0.0359213c0.0931772,0.0460433 0.183878,0.096311 0.271843,0.15061l-1.14087 0.840169z"/>
    <polygon id="_467816888" class="fil23" points="4.25661,6.29452 4.34954,4.32376 5.32036,4.96022 "/>
    <path id="_467816624" class="fil1" d="M3.52323 0.480236l0 0 -1.08752 -0.230087c0.0435709,-0.0134488 0.0875669,-0.0259252 0.131882,-0.0376063l2.1773 0.169776c0.0448071,0.0197126 0.0890827,0.0403819 0.132823,0.0619961l-1.35448 0.0359213z"/>
    <path id="_467816408" class="fil27" d="M5.77474 5.73247l-0.454386 -0.772244 0.671232 -0.734311 0.0965079 1.13721c-0.0954488,0.130697 -0.200201,0.254146 -0.313354,0.369346z"/>
    <polygon id="_467817152" class="fil28" points="5.32036,4.96022 5.32036,4.96022 4.34954,4.32376 5.99159,4.22591 "/>
    <path id="_467816432" class="fil2" d="M5.99159 4.22591l-1.32191 -1.60355 1.41272 -1.16664c0.0535591,0.0728976 0.104224,0.148043 0.151787,0.225315l-0.242594 2.54488z"/>
    <path id="_467816504" class="fil17" d="M4.66968 2.62236l0.620323 -1.9357c0.305126,0.210409 0.573138,0.470685 0.792398,0.769063l-1.41272 1.16664z"/>
    <path id="_467817008" class="fil24" d="M4.96144 6.33947l-0.704839 -0.0449488 1.06375 -1.3343 0.454386 0.772244c-0.237354,0.241614 -0.511441,0.446969 -0.813299,0.607004z"/>
    <polygon id="_467817032" class="fil10" points="4.34954,4.32376 4.66968,2.62236 5.99159,4.22591 "/>
    <path id="_467815928" class="fil29" d="M4.21826 6.62457l0.0383504 -0.330047 0.704839 0.0449488c-0.232661,0.123339 -0.481748,0.219772 -0.743189,0.285098z"/>
    <path id="_467816360" class="fil30" d="M3.91797 0.141555l-1.12472 0.0200118c0.20089,-0.0380748 0.408114,-0.0582441 0.620079,-0.0582441 0.171575,0 0.340098,0.013063 0.504638,0.0382323z"/>
    <path id="_467815976" class="fil1" d="M4.74489 0.382319l-2.1773 -0.169776c0.0742283,-0.019563 0.1495,-0.0365197 0.225661,-0.0509764l1.12472 -0.0200118c0.28972,0.0443858 0.567028,0.126425 0.826917,0.240764z"/>
    <path id="_467816336" class="fil31" d="M5.99159 4.22591l0.242594 -2.54488c0.303311,0.492858 0.480957,1.07121 0.488626,1.69056l-0.73122 0.854323z"/>
    <path id="_467816384" class="fil32" d="M5.99159 4.22591l0.73122 -0.854323c0.000173228,0.0139134 0.000527559,0.0277835 0.000527559,0.0417402 0,0.224079 -0.0223976,0.442909 -0.0648386,0.654492l-0.666909 0.158091z"/>
    <path id="_467816072" class="fil20" d="M6.0881 5.36312l-0.0965079 -1.13721 0.48835 0.434898c-0.102228,0.250925 -0.234264,0.486508 -0.391843,0.702311z"/>
    <path id="_467815856" class="fil19" d="M6.47994 4.66081l-0.48835 -0.434898 0.666909 -0.158091c-0.0412126,0.20515 -0.10137,0.403433 -0.178559,0.592988z"/>
   </g>
   <path id="_467814992" class="fil33" d="M3.41333 0c0.942551,0 1.79589,0.382055 2.41358,0.999752 0.617697,0.617693 0.999752,1.47103 0.999752,2.41358 0,0.942551 -0.382055,1.79589 -0.999752,2.41358 -0.617693,0.617697 -1.47103,0.999752 -2.41358,0.999752 -0.942551,0 -1.79589,-0.382055 -2.41358,-0.999752 -0.617697,-0.617693 -0.999752,-1.47103 -0.999752,-2.41358 0,-0.942551 0.382055,-1.79589 0.999752,-2.41358 0.617693,-0.617697 1.47103,-0.999752 2.41358,-0.999752zm2.26731 1.14602c-0.580248,-0.580248 -1.38187,-0.939146 -2.26731,-0.939146 -0.885445,0 -1.68707,0.358898 -2.26731,0.939146 -0.580248,0.580248 -0.939146,1.38187 -0.939146,2.26731 0,0.885445 0.358898,1.68707 0.939146,2.26731 0.580248,0.580248 1.38187,0.939146 2.26731,0.939146 0.885445,0 1.68707,-0.358898 2.26731,-0.939146 0.580248,-0.580248 0.939146,-1.38187 0.939146,-2.26731 0,-0.885445 -0.358898,-1.68707 -0.939146,-2.26731z"/>
  </g>
  <g id="_467814872">
   <path id="_467815208" class="fil34" d="M2.59285 1.41333l0 0zm0.648079 0.64811l0 0zm-1.10613 -0.458055c0.117366,-0.117362 0.27939,-0.190055 0.458055,-0.190055 0.178642,0 0.340661,0.0726969 0.458024,0.190063 0.117358,0.117362 0.190055,0.279386 0.190055,0.458047 0,0.0709685 -0.0240433,0.167835 -0.0728071,0.292339 -0.051626,0.131815 -0.12961,0.290929 -0.234661,0.479165 -0.0490472,0.0879094 -0.100406,0.175114 -0.147083,0.252311 -0.0883937,0.146181 -0.15263,0.243756 -0.156638,0.249819l0 0.00034252 -0.0369094 0.0559528 -0.0369173 -0.0559528 0 -0.00034252 -0.000125984 -0.000188976 -0.00015748 0.000102362c-0.00914567,-0.0139134 -0.154441,-0.235055 -0.303437,-0.502043 -0.105047,-0.188236 -0.183028,-0.347346 -0.234654,-0.479169 -0.0487677,-0.124508 -0.0728071,-0.221382 -0.0728071,-0.292358 0,-0.17865 0.0726969,-0.340669 0.190063,-0.458031zm0.187677 0.723398c0.0691654,0.0691693 0.16474,0.111949 0.270319,0.111949 0.105567,0 0.20115,-0.0427874 0.270315,-0.111957 0.0691693,-0.0691693 0.111953,-0.164736 0.111953,-0.270311l0 -1.1811e-005 0.000444882 0c0,-0.105268 -0.0429646,-0.200866 -0.112406,-0.270307 -0.0691693,-0.0691693 -0.16474,-0.111953 -0.270299,-0.111953l-7.87402e-006 0c-0.105579,0 -0.201154,0.0427835 -0.270319,0.111953 -0.0691693,0.0691654 -0.111953,0.164736 -0.111953,0.270319 0,0.105579 0.0427835,0.201154 0.111953,0.270319z"/>
   <path id="_467815184" class="fil34" d="M3.41333 1.95053c0.478098,0 0.910957,0.193799 1.22428,0.507122 0.313323,0.313327 0.507122,0.746181 0.507122,1.22428 0,0.478102 -0.193799,0.910957 -0.507122,1.22428 -0.313327,0.313323 -0.746181,0.507126 -1.22428,0.507126 -0.478102,0 -0.910957,-0.193803 -1.22428,-0.507126 -0.313323,-0.313323 -0.507122,-0.746177 -0.507122,-1.22428 0,-0.187705 0.0300669,-0.36874 0.0856417,-0.538531 0.0575315,-0.17578 0.142421,-0.339146 0.249594,-0.485083l0.0255984 -0.0348504c0.0422992,0.0856024 0.0877126,0.169803 0.133504,0.251858 0.0915709,0.164091 0.189799,0.328295 0.292693,0.486035l0 0.000161417 0.0138386 0.0209685c5.51181e-005,9.05512e-005 0.00011811,0.000177165 0.000177165,0.000271654l0.047622 0.072437 0.000122047 -7.87402e-005 0.062126 0.0941575 0.123854 -0.187764 0 -0.000444882c0.0495,-0.0758307 0.097311,-0.153457 0.144091,-0.230815 0.0508858,-0.0841575 0.100689,-0.169051 0.14861,-0.254933 0.0876811,-0.157134 0.174008,-0.322126 0.239693,-0.489831 0.0380591,-0.0971772 0.0787913,-0.218709 0.0787913,-0.324047 0,-0.0364803 -0.00269685,-0.072622 -0.00797638,-0.108193l0.00321654 -0.000165354c0.0126969,-0.000653543 0.0277795,-0.00120866 0.0453228,-0.00166142 0.0229567,-0.000590551 0.0379724,-0.000893701 0.0448858,-0.000893701zm-1.42056 2.58908c0.430366,-0.39415 0.846091,-0.419315 1.15377,-0.286051 0.196276,0.0850118 0.347902,0.235429 0.431634,0.396772 0.0885984,0.17072 0.102976,0.356417 0.0187087,0.499224 -0.0842205,0.142736 -0.262102,0.237134 -0.555681,0.222169l-0.0275118 -0.00577559c-0.0631102,-0.0249173 -0.116228,-0.0437205 -0.162165,-0.0585866 -0.0482992,-0.0156299 -0.0912126,-0.0279724 -0.129976,-0.0386575l0.0462008 -0.167122c0.0406142,0.0111969 0.085685,0.0241654 0.136764,0.0406929 0.0496339,0.0160669 0.102933,0.0346811 0.15989,0.0568386 0.209921,0.00790157 0.331244,-0.0501102 0.383028,-0.13787 0.0520709,-0.088248 0.0384724,-0.212071 -0.0234685,-0.331425 -0.0668071,-0.128736 -0.188323,-0.248984 -0.346031,-0.317291 -0.252343,-0.109295 -0.599059,-0.083378 -0.968319,0.254803l-0.116843 -0.12772zm2.95752 -1.24875c-0.220307,-0.113205 -0.517748,-0.148551 -0.782988,-0.180067 -0.27715,-0.0329331 -0.521866,-0.0620157 -0.650319,-0.176201 -0.169811,-0.150933 -0.131339,-0.402268 0.299634,-0.887122l0.129756 0.115492c-0.344079,0.387094 -0.403039,0.562642 -0.313898,0.641878 0.0875472,0.0778228 0.30685,0.103886 0.555209,0.133398 0.279594,0.0332205 0.593126,0.0704803 0.842094,0.198409l-0.0794882 0.154213zm-0.404189 1.62272c-0.345602,-0.023185 -0.533157,-0.113366 -0.611587,-0.234622 -0.0705197,-0.109028 -0.056685,-0.23326 0.0111102,-0.355665 0.0585433,-0.105705 0.159429,-0.210874 0.278024,-0.300421 0.271335,-0.204882 0.647752,-0.331488 0.840689,-0.204937l-0.0951102 0.145382c-0.128295,-0.0841535 -0.419059,0.0305866 -0.640961,0.198142 -0.100772,0.0760906 -0.184866,0.162508 -0.231146,0.246071 -0.0370276,0.0668543 -0.0478819,0.129602 -0.0172283,0.177 0.0501378,0.0775157 0.194429,0.136803 0.477756,0.155815l-0.0115472 0.173236z"/>
  </g>
 </g>
</svg>
